<svg id="Layer_1" data-name="Layer 1" xmlns="http://www.w3.org/2000/svg" viewBox="0 0 604.05 197.3"><defs><style>.cls-1{fill:#2c3e50}.cls-3{fill:#fff}</style></defs><path class="cls-1" d="M218.92 113.33a.58.58 0 0 0 0-.26q-1.63-19.83-3.28-39.67a1 1 0 0 0 0-.17 1.19 1.19 0 0 0-.28-.56L205 61.12 198.79 45a1.2 1.2 0 0 0-.55-.81l-29.83-27.44a1 1 0 0 0-.43-.23h-.08a.92.92 0 0 0-.46-.06L134.79 14l-1.86-3.13a.79.79 0 0 0-.44-.57.91.91 0 0 0-.48-.15h-.1l-62.13 2.3-10.66.4a.83.83 0 0 0-.67.13.75.75 0 0 0-.29.27l-48.1 39.24-7.84 6.4a.76.76 0 0 0-.45.39.81.81 0 0 0-.15.81Q3.27 77.68 4.9 95.3a.93.93 0 0 0 0 .29.89.89 0 0 0 .37.56l30 28.49a.94.94 0 0 0 .72.29h22.17q1.59 7.74 3.17 15.47a.87.87 0 0 0 .76.74h41.6l27.2 21.12q1.11 22.06 2.2 44.13a1 1 0 0 0 1.91.61l24-33.54.09-.11 33.74-27.17a.71.71 0 0 0 .14-.1.43.43 0 0 0 .11-.12.78.78 0 0 0 .26-.74l2-10.15 8.4 2.82a1 1 0 0 0 1.17-.47q6.84-11.61 13.69-23.21a.87.87 0 0 0 .28-.63.6.6 0 0 0 .04-.25zm-60.73 58.09L135.11 162l52.71-14.42zM36.42 122.87 12.28 99.93l42.61 22.94zm115.3-76.47-12.8-4.95L130 38q1.29-11.82 2.59-23.65 9.57 16.04 19.13 32.05zm13 42.45Q150 66.07 135.35 43.27L134.5 42l18.8 7.28zm-57.64.08V55.52l49.79 33.75 7.26 4.93L110 92.48l-2.75-.09c.06-1.27-.16-2.79-.16-3.46zm57 2.71-47.21-32-8.79-6 23.49-12.46zm3 5.89 6.27 28.65-43.1 12zM201 65.92q-7 15.49-14.05 31a1 1 0 0 0-.15.51q-4.6 10.18-9.2 20.38c-.89 2-1.77 3.91-2.65 5.86l-6.12-27.93zm-33 26.85-7.4-25.69q-2.29-8-4.6-16l-.09-.33c-.14-.47-.27-.94-.41-1.4l40.32-3.06zM117.18 35.7l12.16 4.3-23.16 12.32L64 16.77zM93.92 73.56 105 57v35.83L62.67 120.3zm-34.34 47.62-9.66-56.31-.09-.55 54-9.33q-16.33 24.47-32.7 48.92zm105.83-24.87-38 42q-9.86-21.89-19.72-43.79zm4.71 32.93-37.57 30.68-4.23-19zm4.39-.93q7.92 8.2 15.86 16.4l-54 14.78zm26.55-57.5 3.28-7.26 8.77 9.77-22.19 20zm-24.88 15.26-3.89 3.6 25.25-42.17q2.64 6.95 5.3 13.89zm-20.4-38.78q6.14-14 12.26-28.06l27.24 25.06zm-52.09 5.63L50 62.2q4.8-23.2 9.66-46.41zM47.75 64.45l9.62 56Q38.43 99 19.47 77.42L5.1 61.1zm-5.57 41.91q6.12 6.94 12.23 13.9L7.5 95l-.58-.3Q5.45 78.82 4 62.94zm63.43-11.44 19.68 43.72-58.08-13.85-5.61-1.33zm17.6 46.26h3.05l4 18-23.23-18zm68.49 1.92q-6.7-6.91-13.4-13.85l15.11 5.09zm-3.39-44 26.88 14.09-38.71 12.09q5.91-13.13 11.83-26.23zm28.39 12.53-27.08-14.4 24.1-21.66 2.98 36.01zm-50.55-93.22Q160.09 32.3 154 46.19l-17.92-30zm-45-5.8 9.62-.36-2.73 25-57.32-20.31-6.27-2.23zm-69.56 8.66 5.8-4.74q-4.78 22.92-9.58 45.85L5.29 59zM63.18 139.1q-1.43-6.9-2.83-13.81l57.92 13.81H63.18zM133 163.35l23.74 9.71L135 203.41l-2-40.06zm70.57-27.77L178 127l37.67-11.77zM308.17 130.26 261.56 23.64H283l41.59 96.42h-12.5l42.35-96.42h19.65l-46.43 106.62zM390 130.26V23.64h43.87q14.16 0 24.29 4.49a34.7 34.7 0 0 1 15.61 13q5.49 8.52 5.49 20.41 0 11.73-5.49 20.1a35.51 35.51 0 0 1-15.61 13Q448 99.2 433.83 99.19h-32.75l8.68-8.83v39.9zm19.8-37.77-8.68-9.6h31.83q13.11 0 19.73-5.63t6.62-15.69q0-10.07-6.62-15.62t-19.73-5.56h-31.87l8.68-9.74zm50 37.77-27-38.69h21.17l27.12 38.69zM500.77 130.26V23.64h46.76q17.06 0 30.24 6.63a49.31 49.31 0 0 1 20.49 18.65q7.31 12 7.31 28t-7.31 28a49.4 49.4 0 0 1-20.49 18.66q-13.18 6.62-30.24 6.62zm19.8-16.75h25.74q12 0 20.8-4.57a34 34 0 0 0 13.7-12.8 36.78 36.78 0 0 0 5-19.34q0-11.11-5-19.19A34.45 34.45 0 0 0 567.11 45q-8.76-4.56-20.8-4.57h-25.74z" transform="translate(-1.58 -10.14)"/><path style="fill:#3597d3" d="M260.08 135.01h343.97v48.3H260.08z"/><path class="cls-3" d="M275.94 154.07a13 13 0 0 1 3.58.51 10.27 10.27 0 0 1 3.24 1.62 8.44 8.44 0 0 1 2.36 2.82 8.67 8.67 0 0 1 .9 4.09 11.41 11.41 0 0 1-.54 3.49 8.3 8.3 0 0 1-1.75 3 8.65 8.65 0 0 1-3.15 2.16 12.38 12.38 0 0 1-4.77.81h-4.95V186h-2.21v-32zm-.27 16.42a10.1 10.1 0 0 0 4-.67 6.49 6.49 0 0 0 2.48-1.76 6.72 6.72 0 0 0 1.28-2.36 8.93 8.93 0 0 0 .38-2.5 7 7 0 0 0-.52-2.7 6.55 6.55 0 0 0-1.5-2.23 7.43 7.43 0 0 0-2.39-1.53 8.31 8.31 0 0 0-3.1-.56h-5.4v14.31zm4.59 1 8.87 14.51h-2.57l-8.91-14.49zM297.14 154.07h19.71v2.11h-17.51v12.69h15.75V171h-15.75v12.9h18.14v2.1h-20.34zM341.87 157.31a21.88 21.88 0 0 0-3.42-1.26 14.54 14.54 0 0 0-4.05-.59 7.62 7.62 0 0 0-5 1.58 4.94 4.94 0 0 0-1.89 4 4.29 4.29 0 0 0 1.08 3 8.89 8.89 0 0 0 2.83 2c1.17.56 2.42 1.09 3.74 1.6 1.05.39 2.09.83 3.12 1.31a13 13 0 0 1 2.82 1.75 7.59 7.59 0 0 1 2 2.57 8.69 8.69 0 0 1 .74 3.78 8.79 8.79 0 0 1-1.26 4.7 8.5 8.5 0 0 1-3.51 3.17 11.53 11.53 0 0 1-5.22 1.13 15.08 15.08 0 0 1-4.34-.59 18.3 18.3 0 0 1-3.42-1.37c-1-.53-1.75-1-2.32-1.33l1-1.8a18.08 18.08 0 0 0 2.4 1.44 18.58 18.58 0 0 0 3.09 1.22 11.63 11.63 0 0 0 3.33.49 9.56 9.56 0 0 0 3.75-.76 7.36 7.36 0 0 0 3-2.32 6.32 6.32 0 0 0 1.19-3.94 5.78 5.78 0 0 0-1.12-3.71 8.6 8.6 0 0 0-2.88-2.32 32.65 32.65 0 0 0-3.74-1.62c-1-.39-2-.8-3.06-1.24a14 14 0 0 1-2.73-1.6 7.08 7.08 0 0 1-2-2.23 6.22 6.22 0 0 1-.74-3.15 6.9 6.9 0 0 1 1.17-4 7.86 7.86 0 0 1 3.17-2.68 10.74 10.74 0 0 1 4.57-1 18.51 18.51 0 0 1 4.56.58 18.15 18.15 0 0 1 4 1.49zM352 154.07h19.71v2.11h-17.47v12.69H370V171h-15.76v12.9h18.14v2.1H352zM402.53 186l-11.79-29.93 1.21.18L380.43 186h-2.52l13.59-33.44L405.09 186zM419.67 154.07a13 13 0 0 1 3.58.51 10.27 10.27 0 0 1 3.24 1.62 8.44 8.44 0 0 1 2.36 2.82 8.67 8.67 0 0 1 .9 4.09 11.41 11.41 0 0 1-.54 3.49 8.3 8.3 0 0 1-1.75 3 8.65 8.65 0 0 1-3.15 2.16 12.38 12.38 0 0 1-4.77.81h-5V186h-2.21v-32zm-.27 16.42a10.1 10.1 0 0 0 4-.67 6.57 6.57 0 0 0 2.48-1.76 6.72 6.72 0 0 0 1.28-2.36 8.93 8.93 0 0 0 .38-2.5 7 7 0 0 0-.52-2.7 6.55 6.55 0 0 0-1.5-2.23 7.54 7.54 0 0 0-2.39-1.53 8.31 8.31 0 0 0-3.1-.56h-5.4v14.31zm4.59 1 8.87 14.51h-2.57l-8.91-14.49zM463.5 183.54a19.44 19.44 0 0 1-2.38 1.22 15.66 15.66 0 0 1-3 .92 17.56 17.56 0 0 1-3.51.34 16.46 16.46 0 0 1-6.62-1.29 15.1 15.1 0 0 1-5.08-3.51 15.82 15.82 0 0 1-3.27-5.13 16.71 16.71 0 0 1-1.14-6.18 17.32 17.32 0 0 1 1.21-6.53 16.24 16.24 0 0 1 19.65-9.38 18 18 0 0 1 4 1.76l-.95 2a16.85 16.85 0 0 0-3.55-1.66 12.91 12.91 0 0 0-4.19-.68 13.27 13.27 0 0 0-5.35 1.1 14.21 14.21 0 0 0-4.44 3.06 14.42 14.42 0 0 0-3 4.57 14.59 14.59 0 0 0-1.08 5.63 15.16 15.16 0 0 0 1 5.44 13.22 13.22 0 0 0 2.79 4.5 13 13 0 0 0 4.39 3 14.39 14.39 0 0 0 5.71 1.1 13.7 13.7 0 0 0 4.3-.65 15.62 15.62 0 0 0 3.49-1.64zM495.32 154.07v32h-2.21V171h-19.26v15h-2.2v-32h2.2v14.85h19.26v-14.78zM519.3 154.07h2.21v29.83H539v2.1h-19.7zM570.37 186l-11.79-29.93 1.21.18L548.27 186h-2.52l13.59-33.44L572.93 186zM587.29 154.07c3.08 0 5.48.63 7.17 1.91s2.55 3.34 2.55 6.19a9.13 9.13 0 0 1-.82 3.87 7.13 7.13 0 0 1-2.4 2.88 8.82 8.82 0 0 1-4 1.44l-.23-1.08a11.62 11.62 0 0 1 4.52 1.23 8.92 8.92 0 0 1 3.29 2.84 7.12 7.12 0 0 1 1.24 4.16 8 8 0 0 1-.84 3.76 7.59 7.59 0 0 1-2.25 2.65 9.92 9.92 0 0 1-3.21 1.58 13.86 13.86 0 0 1-3.78.52h-8.33v-32zm1 14.94q3.42 0 4.93-1.85a7 7 0 0 0 1.51-4.59q0-3.42-2-4.9a8.8 8.8 0 0 0-5.37-1.49h-5V169zm.14 15a10.77 10.77 0 0 0 4-.7 6.4 6.4 0 0 0 2.88-2.13 5.77 5.77 0 0 0 1.08-3.56 5.59 5.59 0 0 0-1.22-3.76 7.13 7.13 0 0 0-3.06-2.07 11.38 11.38 0 0 0-3.78-.65h-5.89V184z" transform="translate(-1.58 -10.14)"/></svg>